<svg xmlns="http://www.w3.org/2000/svg" viewBox="0 0 32 32" role="img" aria-label="Tomato">
  <defs>
    <radialGradient id="tomatoGlow" cx="35%" cy="30%" r="70%">
      <stop offset="0%" stop-color="#ff6b6b" />
      <stop offset="55%" stop-color="#e63946" />
      <stop offset="100%" stop-color="#b91c1c" />
    </radialGradient>
    <linearGradient id="leafGreen" x1="0%" y1="0%" x2="100%" y2="100%">
      <stop offset="0%" stop-color="#86efac" />
      <stop offset="100%" stop-color="#16a34a" />
    </linearGradient>
  </defs>

  <rect width="32" height="32" rx="8" fill="#0b0e14" />

  <ellipse cx="16" cy="18.5" rx="10.5" ry="11" fill="url(#tomatoGlow)" />
  <ellipse cx="12.5" cy="14.5" rx="2.2" ry="3.2" fill="#ffffff" opacity="0.18" />

  <path
    d="M16 7.5c-1.2 0-2.2.4-3 1.1-.4.4-.7.9-.9 1.4-.2.5-.1 1 .2 1.3.3.3.8.3 1.2.1.8-.5 1.6-.8 2.5-.8s1.7.3 2.5.8c.4.2.9.2 1.2-.1.3-.3.4-.8.2-1.3-.2-.5-.5-1-.9-1.4-.8-.7-1.8-1.1-3-1.1z"
    fill="#166534"
  />
  <path
    d="M16 7.2c-.8-.6-2-.7-2.8-.1-1 .7-1.8 1.8-2.2 3-.3.9-.1 1.7.5 2 .6.3 1.3 0 2-.6.7-.6 1.5-.9 2.5-.9s1.8.3 2.5.9c.7.6 1.4.9 2 .6.6-.3.8-1.1.5-2-.4-1.2-1.2-2.3-2.2-3-.8-.6-2-.5-2.8.1z"
    fill="url(#leafGreen)"
  />
  <path
    d="M16 7.2v3.2"
    stroke="#14532d"
    stroke-width="1.1"
    stroke-linecap="round"
  />
</svg>
